<svg width="20" height="17" viewBox="0 0 20 17" fill="none" xmlns="http://www.w3.org/2000/svg">
<path d="M18.6275 0H4.5098C4.14578 0 3.79667 0.145785 3.53927 0.405283C3.28186 0.664781 3.13725 1.01674 3.13725 1.38372V3.16279H1.37255C1.00853 3.16279 0.659413 3.30857 0.40201 3.56807C0.144608 3.82757 0 4.17953 0 4.54651V15.6163C0 15.9833 0.144608 16.3352 0.40201 16.5947C0.659413 16.8542 1.00853 17 1.37255 17H15.4902C15.8542 17 16.2033 16.8542 16.4607 16.5947C16.7181 16.3352 16.8627 15.9833 16.8627 15.6163V13.8372H18.6275C18.9915 13.8372 19.3406 13.6914 19.598 13.4319C19.8554 13.1724 20 12.8205 20 12.4535V1.38372C20 1.01674 19.8554 0.664781 19.598 0.405283C19.3406 0.145785 18.9915 0 18.6275 0ZM4.31373 1.38372C4.31373 1.33129 4.33438 1.28102 4.37116 1.24394C4.40793 1.20687 4.4578 1.18605 4.5098 1.18605H18.6275C18.6795 1.18605 18.7293 1.20687 18.7661 1.24394C18.8029 1.28102 18.8235 1.33129 18.8235 1.38372V8.06215L17.5029 6.73081C17.3755 6.60231 17.2242 6.50037 17.0576 6.43082C16.8911 6.36128 16.7126 6.32548 16.5324 6.32548C16.3521 6.32548 16.1736 6.36128 16.0071 6.43082C15.8405 6.50037 15.6892 6.60231 15.5618 6.73081L13.4618 8.84692L9.0098 4.35872C8.88235 4.23022 8.73103 4.12828 8.5645 4.05873C8.39797 3.98918 8.21947 3.95339 8.03922 3.95339C7.85896 3.95339 7.68047 3.98918 7.51393 4.05873C7.3474 4.12828 7.19608 4.23022 7.06863 4.35872L4.31373 7.13605V1.38372ZM15.6863 15.6163C15.6863 15.6687 15.6656 15.719 15.6288 15.7561C15.5921 15.7931 15.5422 15.814 15.4902 15.814H1.37255C1.32055 15.814 1.27067 15.7931 1.2339 15.7561C1.19713 15.719 1.17647 15.6687 1.17647 15.6163V4.54651C1.17647 4.49409 1.19713 4.44381 1.2339 4.40673C1.27067 4.36966 1.32055 4.34884 1.37255 4.34884H3.13725V12.4535C3.13725 12.8205 3.28186 13.1724 3.53927 13.4319C3.79667 13.6914 4.14578 13.8372 4.5098 13.8372H15.6863V15.6163ZM18.6275 12.6512H4.5098C4.4578 12.6512 4.40793 12.6303 4.37116 12.5933C4.33438 12.5562 4.31373 12.5059 4.31373 12.4535V8.81331L7.9 5.19785C7.91821 5.17947 7.93984 5.16489 7.96364 5.15494C7.98744 5.14499 8.01296 5.13987 8.03873 5.13987C8.06449 5.13987 8.09001 5.14499 8.11381 5.15494C8.13762 5.16489 8.15924 5.17947 8.17745 5.19785L13.0461 10.1061C13.1007 10.1612 13.1656 10.205 13.237 10.2348C13.3084 10.2647 13.385 10.28 13.4623 10.28C13.5396 10.28 13.6161 10.2647 13.6875 10.2348C13.7589 10.205 13.8238 10.1612 13.8784 10.1061L16.3931 7.56994C16.4113 7.55156 16.433 7.53698 16.4568 7.52704C16.4806 7.51709 16.5061 7.51197 16.5319 7.51197C16.5576 7.51197 16.5831 7.51709 16.6069 7.52704C16.6308 7.53698 16.6524 7.55156 16.6706 7.56994L18.8274 9.74436V12.4535C18.8275 12.4798 18.8223 12.5058 18.8122 12.5301C18.8021 12.5543 18.7873 12.5763 18.7686 12.5947C18.75 12.6131 18.7279 12.6276 18.7037 12.6373C18.6794 12.647 18.6535 12.6517 18.6275 12.6512ZM13.3333 4.15116C13.3333 3.95568 13.3908 3.76459 13.4986 3.60205C13.6063 3.43952 13.7594 3.31283 13.9385 3.23803C14.1177 3.16322 14.3148 3.14365 14.505 3.18178C14.6952 3.21992 14.8699 3.31405 15.007 3.45228C15.1441 3.5905 15.2375 3.76662 15.2753 3.95834C15.3131 4.15007 15.2937 4.3488 15.2195 4.5294C15.1453 4.71 15.0196 4.86436 14.8584 4.97296C14.6972 5.08157 14.5076 5.13953 14.3137 5.13953C14.0537 5.13953 13.8043 5.0354 13.6205 4.85005C13.4366 4.66469 13.3333 4.4133 13.3333 4.15116Z" fill="#B9BABE"/>
</svg>
